<svg width="22" height="22" viewBox="0 0 22 22" fill="none" xmlns="http://www.w3.org/2000/svg">
<g clip-path="url(#clip0_1_35)">
<path d="M12.375 19.25H9.625C9.26033 19.25 8.91059 19.1051 8.65273 18.8473C8.39487 18.5894 8.25 18.2397 8.25 17.875V12.6569L3.15563 7.5625C2.89741 7.30582 2.75154 6.95721 2.75 6.59313V4.125C2.75 3.76033 2.89487 3.41059 3.15273 3.15273C3.41059 2.89487 3.76033 2.75 4.125 2.75H17.875C18.2397 2.75 18.5894 2.89487 18.8473 3.15273C19.1051 3.41059 19.25 3.76033 19.25 4.125V6.59313C19.2485 6.95721 19.1026 7.30582 18.8444 7.5625L13.75 12.6569V17.875C13.75 18.2397 13.6051 18.5894 13.3473 18.8473C13.0894 19.1051 12.7397 19.25 12.375 19.25ZM4.125 4.125V6.59313L9.625 12.0931V17.875H12.375V12.0931L17.875 6.59313V4.125H4.125Z" fill="#767777"/>
</g>
<defs>
<clipPath id="clip0_1_35">
<rect width="22" height="22" fill="white"/>
</clipPath>
</defs>
</svg>
